<mxfile host="app.diagrams.net" agent="Mozilla/5.0 (Windows NT 10.0; Win64; x64) AppleWebKit/537.36 (KHTML, like Gecko) Chrome/140.0.0.0 Safari/537.36" version="28.2.3">
  <diagram name="Trang-1" id="HiJPjCrJqXCs-BdjE4hO">
    <mxGraphModel dx="786" dy="451" grid="1" gridSize="10" guides="1" tooltips="1" connect="1" arrows="1" fold="1" page="1" pageScale="1" pageWidth="827" pageHeight="1169" math="0" shadow="0">
      <root>
        <mxCell id="0" />
        <mxCell id="1" parent="0" />
        <mxCell id="ZydjALHLcL7V1aWvFSnd-1" value="Start" style="ellipse;whiteSpace=wrap;html=1;" vertex="1" parent="1">
          <mxGeometry x="345" y="50" width="130" height="80" as="geometry" />
        </mxCell>
        <mxCell id="ZydjALHLcL7V1aWvFSnd-2" value="Khách hàng truy cập ứng dụng" style="rounded=0;whiteSpace=wrap;html=1;" vertex="1" parent="1">
          <mxGeometry x="340" y="170" width="140" height="60" as="geometry" />
        </mxCell>
        <mxCell id="ZydjALHLcL7V1aWvFSnd-3" value="Nhập thông tin chuyến bay" style="rounded=0;whiteSpace=wrap;html=1;" vertex="1" parent="1">
          <mxGeometry x="340" y="270" width="140" height="60" as="geometry" />
        </mxCell>
        <mxCell id="ZydjALHLcL7V1aWvFSnd-4" value="Hệ thống tìm kiếm và hiển thị kết quả" style="rounded=0;whiteSpace=wrap;html=1;" vertex="1" parent="1">
          <mxGeometry x="340" y="370" width="140" height="60" as="geometry" />
        </mxCell>
        <mxCell id="ZydjALHLcL7V1aWvFSnd-5" value="Khách chọn chuyến bay" style="rounded=0;whiteSpace=wrap;html=1;" vertex="1" parent="1">
          <mxGeometry x="340" y="470" width="140" height="60" as="geometry" />
        </mxCell>
        <mxCell id="ZydjALHLcL7V1aWvFSnd-6" value="Nhập thông tin bản thân và các dịch vụ" style="rounded=0;whiteSpace=wrap;html=1;" vertex="1" parent="1">
          <mxGeometry x="340" y="570" width="140" height="60" as="geometry" />
        </mxCell>
        <mxCell id="ZydjALHLcL7V1aWvFSnd-8" value="Chọn phương thức thanah toán và thanh toán" style="rounded=0;whiteSpace=wrap;html=1;" vertex="1" parent="1">
          <mxGeometry x="340" y="670" width="140" height="60" as="geometry" />
        </mxCell>
        <mxCell id="ZydjALHLcL7V1aWvFSnd-9" value="Thanh toán thành công" style="rhombus;whiteSpace=wrap;html=1;" vertex="1" parent="1">
          <mxGeometry x="320" y="780" width="180" height="80" as="geometry" />
        </mxCell>
        <mxCell id="ZydjALHLcL7V1aWvFSnd-10" value="Hệ thống phát vé điện tử" style="rounded=0;whiteSpace=wrap;html=1;" vertex="1" parent="1">
          <mxGeometry x="220" y="890" width="130" height="60" as="geometry" />
        </mxCell>
        <mxCell id="ZydjALHLcL7V1aWvFSnd-11" value="Khách hàng xác nhận" style="rounded=0;whiteSpace=wrap;html=1;" vertex="1" parent="1">
          <mxGeometry x="220" y="990" width="130" height="60" as="geometry" />
        </mxCell>
        <mxCell id="ZydjALHLcL7V1aWvFSnd-12" value="End" style="ellipse;whiteSpace=wrap;html=1;" vertex="1" parent="1">
          <mxGeometry x="225" y="1089" width="120" height="80" as="geometry" />
        </mxCell>
        <mxCell id="ZydjALHLcL7V1aWvFSnd-13" value="Thông báo lỗi" style="rounded=0;whiteSpace=wrap;html=1;" vertex="1" parent="1">
          <mxGeometry x="480" y="890" width="120" height="60" as="geometry" />
        </mxCell>
        <mxCell id="ZydjALHLcL7V1aWvFSnd-14" value="" style="endArrow=classic;html=1;rounded=0;exitX=0.5;exitY=1;exitDx=0;exitDy=0;entryX=0.5;entryY=0;entryDx=0;entryDy=0;" edge="1" parent="1" source="ZydjALHLcL7V1aWvFSnd-1" target="ZydjALHLcL7V1aWvFSnd-2">
          <mxGeometry width="50" height="50" relative="1" as="geometry">
            <mxPoint x="400" y="230" as="sourcePoint" />
            <mxPoint x="450" y="180" as="targetPoint" />
          </mxGeometry>
        </mxCell>
        <mxCell id="ZydjALHLcL7V1aWvFSnd-15" value="" style="endArrow=classic;html=1;rounded=0;exitX=0.5;exitY=1;exitDx=0;exitDy=0;entryX=0.5;entryY=0;entryDx=0;entryDy=0;" edge="1" parent="1" source="ZydjALHLcL7V1aWvFSnd-2" target="ZydjALHLcL7V1aWvFSnd-3">
          <mxGeometry width="50" height="50" relative="1" as="geometry">
            <mxPoint x="400" y="230" as="sourcePoint" />
            <mxPoint x="450" y="180" as="targetPoint" />
          </mxGeometry>
        </mxCell>
        <mxCell id="ZydjALHLcL7V1aWvFSnd-16" value="" style="endArrow=classic;html=1;rounded=0;exitX=0.5;exitY=1;exitDx=0;exitDy=0;entryX=0.5;entryY=0;entryDx=0;entryDy=0;" edge="1" parent="1" source="ZydjALHLcL7V1aWvFSnd-3" target="ZydjALHLcL7V1aWvFSnd-4">
          <mxGeometry width="50" height="50" relative="1" as="geometry">
            <mxPoint x="200" y="370" as="sourcePoint" />
            <mxPoint x="250" y="320" as="targetPoint" />
          </mxGeometry>
        </mxCell>
        <mxCell id="ZydjALHLcL7V1aWvFSnd-17" value="" style="endArrow=classic;html=1;rounded=0;exitX=0.5;exitY=1;exitDx=0;exitDy=0;entryX=0.5;entryY=0;entryDx=0;entryDy=0;" edge="1" parent="1" source="ZydjALHLcL7V1aWvFSnd-4" target="ZydjALHLcL7V1aWvFSnd-5">
          <mxGeometry width="50" height="50" relative="1" as="geometry">
            <mxPoint x="220" y="530" as="sourcePoint" />
            <mxPoint x="270" y="480" as="targetPoint" />
          </mxGeometry>
        </mxCell>
        <mxCell id="ZydjALHLcL7V1aWvFSnd-18" value="" style="endArrow=classic;html=1;rounded=0;exitX=0.5;exitY=1;exitDx=0;exitDy=0;" edge="1" parent="1" source="ZydjALHLcL7V1aWvFSnd-5" target="ZydjALHLcL7V1aWvFSnd-6">
          <mxGeometry width="50" height="50" relative="1" as="geometry">
            <mxPoint x="180" y="610" as="sourcePoint" />
            <mxPoint x="230" y="560" as="targetPoint" />
          </mxGeometry>
        </mxCell>
        <mxCell id="ZydjALHLcL7V1aWvFSnd-19" value="" style="endArrow=classic;html=1;rounded=0;exitX=0.5;exitY=1;exitDx=0;exitDy=0;entryX=0.5;entryY=0;entryDx=0;entryDy=0;" edge="1" parent="1" source="ZydjALHLcL7V1aWvFSnd-6" target="ZydjALHLcL7V1aWvFSnd-8">
          <mxGeometry width="50" height="50" relative="1" as="geometry">
            <mxPoint x="400" y="730" as="sourcePoint" />
            <mxPoint x="450" y="680" as="targetPoint" />
          </mxGeometry>
        </mxCell>
        <mxCell id="ZydjALHLcL7V1aWvFSnd-20" value="" style="endArrow=classic;html=1;rounded=0;exitX=0.5;exitY=1;exitDx=0;exitDy=0;entryX=0.5;entryY=0;entryDx=0;entryDy=0;" edge="1" parent="1" source="ZydjALHLcL7V1aWvFSnd-8" target="ZydjALHLcL7V1aWvFSnd-9">
          <mxGeometry width="50" height="50" relative="1" as="geometry">
            <mxPoint x="220" y="800" as="sourcePoint" />
            <mxPoint x="270" y="750" as="targetPoint" />
          </mxGeometry>
        </mxCell>
        <mxCell id="ZydjALHLcL7V1aWvFSnd-22" value="" style="endArrow=classic;html=1;rounded=0;exitX=0;exitY=1;exitDx=0;exitDy=0;entryX=0.5;entryY=0;entryDx=0;entryDy=0;" edge="1" parent="1" source="ZydjALHLcL7V1aWvFSnd-9" target="ZydjALHLcL7V1aWvFSnd-10">
          <mxGeometry width="50" height="50" relative="1" as="geometry">
            <mxPoint x="400" y="830" as="sourcePoint" />
            <mxPoint x="450" y="780" as="targetPoint" />
          </mxGeometry>
        </mxCell>
        <mxCell id="ZydjALHLcL7V1aWvFSnd-25" value="Nếu thành công" style="edgeLabel;html=1;align=center;verticalAlign=middle;resizable=0;points=[];" vertex="1" connectable="0" parent="ZydjALHLcL7V1aWvFSnd-22">
          <mxGeometry x="-0.0037" y="3" relative="1" as="geometry">
            <mxPoint as="offset" />
          </mxGeometry>
        </mxCell>
        <mxCell id="ZydjALHLcL7V1aWvFSnd-26" value="" style="endArrow=classic;html=1;rounded=0;exitX=1;exitY=1;exitDx=0;exitDy=0;entryX=0.5;entryY=0;entryDx=0;entryDy=0;" edge="1" parent="1" source="ZydjALHLcL7V1aWvFSnd-9" target="ZydjALHLcL7V1aWvFSnd-13">
          <mxGeometry width="50" height="50" relative="1" as="geometry">
            <mxPoint x="600" y="840" as="sourcePoint" />
            <mxPoint x="650" y="790" as="targetPoint" />
          </mxGeometry>
        </mxCell>
        <mxCell id="ZydjALHLcL7V1aWvFSnd-28" value="Không thành công" style="edgeLabel;html=1;align=center;verticalAlign=middle;resizable=0;points=[];" vertex="1" connectable="0" parent="ZydjALHLcL7V1aWvFSnd-26">
          <mxGeometry x="-0.1921" y="-1" relative="1" as="geometry">
            <mxPoint as="offset" />
          </mxGeometry>
        </mxCell>
        <mxCell id="ZydjALHLcL7V1aWvFSnd-27" value="" style="curved=1;endArrow=classic;html=1;rounded=0;entryX=1;entryY=0.5;entryDx=0;entryDy=0;" edge="1" parent="1" target="ZydjALHLcL7V1aWvFSnd-8">
          <mxGeometry width="50" height="50" relative="1" as="geometry">
            <mxPoint x="600" y="920" as="sourcePoint" />
            <mxPoint x="650" y="870" as="targetPoint" />
            <Array as="points">
              <mxPoint x="650" y="920" />
              <mxPoint x="650" y="830" />
            </Array>
          </mxGeometry>
        </mxCell>
        <mxCell id="ZydjALHLcL7V1aWvFSnd-29" value="" style="endArrow=classic;html=1;rounded=0;exitX=0.5;exitY=1;exitDx=0;exitDy=0;entryX=0.5;entryY=0;entryDx=0;entryDy=0;" edge="1" parent="1" source="ZydjALHLcL7V1aWvFSnd-10" target="ZydjALHLcL7V1aWvFSnd-11">
          <mxGeometry width="50" height="50" relative="1" as="geometry">
            <mxPoint x="370" y="1000" as="sourcePoint" />
            <mxPoint x="420" y="950" as="targetPoint" />
          </mxGeometry>
        </mxCell>
        <mxCell id="ZydjALHLcL7V1aWvFSnd-31" value="" style="endArrow=classic;html=1;rounded=0;exitX=0.5;exitY=1;exitDx=0;exitDy=0;entryX=0.5;entryY=0;entryDx=0;entryDy=0;" edge="1" parent="1" source="ZydjALHLcL7V1aWvFSnd-11" target="ZydjALHLcL7V1aWvFSnd-12">
          <mxGeometry width="50" height="50" relative="1" as="geometry">
            <mxPoint x="400" y="1130" as="sourcePoint" />
            <mxPoint x="450" y="1080" as="targetPoint" />
          </mxGeometry>
        </mxCell>
      </root>
    </mxGraphModel>
  </diagram>
</mxfile>
